<mxfile host="app.diagrams.net" modified="2023-09-08T10:30:34.643Z" agent="Mozilla/5.0 (Windows NT 10.0; Win64; x64) AppleWebKit/537.36 (KHTML, like Gecko) Chrome/105.0.0.0 Safari/537.36" version="21.6.9" etag="jbdOIlEN3AdqcRiqHuMY" type="github">
  <diagram name="第 1 页" id="PORr2Hm0SbEiWHMLtCVL">
    <mxGraphModel>
      <root>
        <mxCell id="0" />
        <mxCell id="1" parent="0" />
      </root>
    </mxGraphModel>
  </diagram>
</mxfile>
